<?xml version="1.0" encoding="iso-8859-1"?>
<!-- Generator: Adobe Illustrator 19.0.0, SVG Export Plug-In . SVG Version: 6.00 Build 0)  -->
<svg version="1.1" width="20px" height="20px" id="Layer_1" xmlns="http://www.w3.org/2000/svg" xmlns:xlink="http://www.w3.org/1999/xlink" x="0px" y="0px"
	 viewBox="0 0 289.48 289.48" style="enable-background:new 0 0 289.48 289.48;" xml:space="preserve">
<g>
	<g>
		<g>
			<path d="M273.74,21.48h-32.52V5c0-2.761-2.239-5-5-5h-42.96c-2.761,0-5,2.239-5,5v16.48h-87.04V5c0-2.761-2.239-5-5-5H53.26
				c-2.761,0-5,2.239-5,5v16.48H15.74c-8.271,0-15,6.729-15,15v57v181c0,8.271,6.729,15,15,15h258c8.271,0,15-6.729,15-15v-181v-57
				C288.74,28.209,282.011,21.48,273.74,21.48z M198.26,26.48V10h32.96v16.48v16.48h-32.96V26.48z M58.26,26.48V10h32.96v16.48
				v16.48H58.26V26.48z M278.74,274.48c0,2.757-2.243,5-5,5h-258c-2.757,0-5-2.243-5-5v-176h268V274.48z M278.74,88.48h-268v-52
				c0-2.757,2.243-5,5-5h32.52v16.48c0,2.761,2.239,5,5,5h42.96c2.761,0,5-2.239,5-5V31.48h87.04v16.48c0,2.761,2.239,5,5,5h42.96
				c2.761,0,5-2.239,5-5V31.48h32.52c2.757,0,5,2.243,5,5V88.48z"/>
			<path d="M39.031,174.689h28.418c2.761,0,5-2.239,5-5v-28.418c0-2.761-2.239-5-5-5H39.031c-2.761,0-5,2.239-5,5v28.418
				C34.031,172.45,36.27,174.689,39.031,174.689z"/>
			<path d="M100.031,174.689h28.418c2.761,0,5-2.239,5-5v-28.418c0-2.761-2.239-5-5-5h-28.418c-2.761,0-5,2.239-5,5v28.418
				C95.031,172.45,97.27,174.689,100.031,174.689z"/>
			<path d="M161.031,174.689h28.418c2.761,0,5-2.239,5-5v-28.418c0-2.761-2.239-5-5-5h-28.418c-2.761,0-5,2.239-5,5v28.418
				C156.031,172.45,158.27,174.689,161.031,174.689z"/>
			<path d="M222.031,174.689h28.418c2.761,0,5-2.239,5-5v-28.418c0-2.761-2.239-5-5-5h-28.418c-2.761,0-5,2.239-5,5v28.418
				C217.031,172.45,219.27,174.689,222.031,174.689z"/>
			<path d="M39.031,235.356h28.418c2.761,0,5-2.239,5-5v-28.418c0-2.761-2.239-5-5-5H39.031c-2.761,0-5,2.239-5,5v28.418
				C34.031,233.117,36.27,235.356,39.031,235.356z"/>
			<path d="M100.031,235.356h28.418c2.761,0,5-2.239,5-5v-28.418c0-2.761-2.239-5-5-5h-28.418c-2.761,0-5,2.239-5,5v28.418
				C95.031,233.117,97.27,235.356,100.031,235.356z"/>
			<path d="M161.031,235.356h28.418c2.761,0,5-2.239,5-5v-28.418c0-2.761-2.239-5-5-5h-28.418c-2.761,0-5,2.239-5,5v28.418
				C156.031,233.117,158.27,235.356,161.031,235.356z"/>
			<path d="M222.031,235.356h28.418c2.761,0,5-2.239,5-5v-28.418c0-2.761-2.239-5-5-5h-28.418c-2.761,0-5,2.239-5,5v28.418
				C217.031,233.117,219.27,235.356,222.031,235.356z"/>
		</g>
	</g>
</g>
<g>
</g>
<g>
</g>
<g>
</g>
<g>
</g>
<g>
</g>
<g>
</g>
<g>
</g>
<g>
</g>
<g>
</g>
<g>
</g>
<g>
</g>
<g>
</g>
<g>
</g>
<g>
</g>
<g>
</g>
</svg>
